<svg id="レイヤー_1" data-name="レイヤー 1" xmlns="http://www.w3.org/2000/svg" viewBox="0 0 210 30"><defs><style>.cls-1{fill:#edeedc;}</style></defs><path class="cls-1" d="M12.34.73h5.2L30,29.27h-7.1l-2.46-6H9.31l-2.37,6H0ZM14.76,9,11.29,17.9h7Z"/><path class="cls-1" d="M63.61,8.14a6.18,6.18,0,0,0-2.28-1.73,7.62,7.62,0,0,0-3.12-.6,7.85,7.85,0,0,0-3.29.68A8,8,0,0,0,52.3,8.41a8.94,8.94,0,0,0-1.73,2.92A10.44,10.44,0,0,0,49.94,15a10.43,10.43,0,0,0,.63,3.69,9.38,9.38,0,0,0,1.71,2.9,7.88,7.88,0,0,0,2.56,1.92,7.37,7.37,0,0,0,3.17.68,7.09,7.09,0,0,0,3.43-.8,6.8,6.8,0,0,0,2.45-2.26L69.14,25a11,11,0,0,1-4.6,3.75A14.14,14.14,0,0,1,58.81,30,17.51,17.51,0,0,1,52.65,29a14.1,14.1,0,0,1-4.88-3,13.67,13.67,0,0,1-3.21-4.74A16.09,16.09,0,0,1,43.41,15a16,16,0,0,1,1.15-6.21,13.67,13.67,0,0,1,3.21-4.74,14.1,14.1,0,0,1,4.88-3,17.51,17.51,0,0,1,6.16-1,14.81,14.81,0,0,1,2.52.22,13.28,13.28,0,0,1,2.59.71,11.38,11.38,0,0,1,2.43,1.29,9.77,9.77,0,0,1,2.1,2Z"/><path class="cls-1" d="M102.79,8.14a6.18,6.18,0,0,0-2.28-1.73,7.62,7.62,0,0,0-3.12-.6,7.82,7.82,0,0,0-3.29.68,7.9,7.9,0,0,0-2.62,1.92,8.77,8.77,0,0,0-1.73,2.92A10.44,10.44,0,0,0,89.12,15a10.43,10.43,0,0,0,.63,3.69,9,9,0,0,0,1.71,2.9A7.88,7.88,0,0,0,94,23.51a7.37,7.37,0,0,0,3.17.68,7,7,0,0,0,3.42-.8,6.74,6.74,0,0,0,2.46-2.26L108.31,25a11,11,0,0,1-4.59,3.75A14.21,14.21,0,0,1,98,30,17.57,17.57,0,0,1,91.82,29a14.2,14.2,0,0,1-4.88-3,13.65,13.65,0,0,1-3.2-4.74A16.09,16.09,0,0,1,82.59,15a16,16,0,0,1,1.15-6.21,13.65,13.65,0,0,1,3.2-4.74,14.2,14.2,0,0,1,4.88-3A17.57,17.57,0,0,1,98,0a14.81,14.81,0,0,1,2.52.22,13,13,0,0,1,2.58.71,11.22,11.22,0,0,1,2.44,1.29,9.77,9.77,0,0,1,2.1,2Z"/><path class="cls-1" d="M121.77.73h19.39v5.8h-13.1v5.32h12.37v5.81H128.06v5.81h13.83v5.8H121.77Z"/><path class="cls-1" d="M171.59,7.7a4.55,4.55,0,0,0-2.08-1.43A7.39,7.39,0,0,0,167,5.81a6.29,6.29,0,0,0-1.41.16,5.48,5.48,0,0,0-1.37.5,3,3,0,0,0-1.05.91,2.29,2.29,0,0,0-.4,1.37,2.27,2.27,0,0,0,1,2,9.09,9.09,0,0,0,2.44,1.16c1,.33,2,.65,3.16,1a13.57,13.57,0,0,1,3.17,1.37A7.56,7.56,0,0,1,175,16.61a7.23,7.23,0,0,1,1,4,9.21,9.21,0,0,1-.88,4.16,8.64,8.64,0,0,1-2.4,2.94,10.31,10.31,0,0,1-3.51,1.74,15.68,15.68,0,0,1-4.21.56,15.2,15.2,0,0,1-5.17-.85,12.79,12.79,0,0,1-4.43-2.74l4.47-4.92a6.59,6.59,0,0,0,2.44,2,7,7,0,0,0,3.05.7,6.9,6.9,0,0,0,1.55-.18,5.16,5.16,0,0,0,1.41-.54,3,3,0,0,0,1-.93,2.36,2.36,0,0,0,.38-1.33,2.42,2.42,0,0,0-1-2,9.2,9.2,0,0,0-2.47-1.27c-1-.35-2.08-.7-3.23-1a13.75,13.75,0,0,1-3.23-1.41,7.8,7.8,0,0,1-2.48-2.34,6.65,6.65,0,0,1-1-3.83,8.64,8.64,0,0,1,.9-4,8.84,8.84,0,0,1,2.42-2.9A10.53,10.53,0,0,1,163.08.58,14.25,14.25,0,0,1,167.15,0a15.92,15.92,0,0,1,4.68.69A10.78,10.78,0,0,1,175.9,3Z"/><path class="cls-1" d="M205.65,7.7a4.6,4.6,0,0,0-2.08-1.43,7.44,7.44,0,0,0-2.48-.46,6.29,6.29,0,0,0-1.41.16,5.34,5.34,0,0,0-1.37.5,3,3,0,0,0-1.05.91,2.29,2.29,0,0,0-.4,1.37,2.29,2.29,0,0,0,1,2,9.4,9.4,0,0,0,2.44,1.16c1,.33,2,.65,3.17,1a13.31,13.31,0,0,1,3.16,1.37A7.59,7.59,0,0,1,209,16.61a7.23,7.23,0,0,1,1,4,9.21,9.21,0,0,1-.89,4.16,8.41,8.41,0,0,1-2.4,2.94,10.17,10.17,0,0,1-3.5,1.74A15.7,15.7,0,0,1,199,30a15.18,15.18,0,0,1-5.16-.85,12.82,12.82,0,0,1-4.44-2.74l4.48-4.92a6.59,6.59,0,0,0,2.44,2,6.92,6.92,0,0,0,4.6.52,5.16,5.16,0,0,0,1.41-.54,3,3,0,0,0,1-.93,2.36,2.36,0,0,0,.38-1.33,2.42,2.42,0,0,0-1-2,9.27,9.27,0,0,0-2.48-1.27c-1-.35-2.07-.7-3.22-1a13.57,13.57,0,0,1-3.23-1.41,7.8,7.8,0,0,1-2.48-2.34,6.65,6.65,0,0,1-1-3.83,8.52,8.52,0,0,1,.91-4,8.72,8.72,0,0,1,2.42-2.9A10.53,10.53,0,0,1,197.14.58,14.2,14.2,0,0,1,201.21,0a16,16,0,0,1,4.68.69A10.78,10.78,0,0,1,210,3Z"/></svg>