<svg id="レイヤー_1" data-name="レイヤー 1" xmlns="http://www.w3.org/2000/svg" viewBox="0 0 572 56"><defs><style>.cls-1{fill:none;}.cls-2{fill:#edefdd;}</style></defs><rect class="cls-1" width="572" height="56"/><path class="cls-2" d="M32.71,81.92a9.77,9.77,0,0,1-1.08-.06,1.11,1.11,0,0,1-1-1.14.92.92,0,0,1,.94-1l.16,0c.46.06.84.1,1,.1,2.82,0,4.84-1.18,4.84-3.42,0-2.06-2-3.22-5.22-3.22a10.92,10.92,0,0,0-2.74.38v5c0,2.54-1,3.26-2.9,3.26a4.15,4.15,0,0,1-4.18-3.82c0-2.68,2.3-4.7,5.06-5.8V69.08c-.74,0-1.46,0-2.16,0-.52,0-1,0-1.5,0a1,1,0,0,1-1-1,.9.9,0,0,1,.92-1h.06q1.11.06,2.28.06c.44,0,.88,0,1.34,0v-1.8a.93.93,0,0,1,1-.88.92.92,0,0,1,1,.88V67.1c1.3-.06,2.38-.16,3.48-.3h.14a.93.93,0,0,1,.94,1,.91.91,0,0,1-.82,1c-1.16.12-2.32.2-3.74.26v2.72a13.14,13.14,0,0,1,2.76-.32c3.9,0,7.26,1.36,7.26,5,0,3.84-3.32,5.48-6.84,5.48Zm-5.12-7.66c-2,1-3.14,2.28-3.14,3.76a2.12,2.12,0,0,0,2.1,1.84c.76,0,1.06-.2,1.06-1.28Zm7.06-7.48a1,1,0,0,1,1-1c.76,0,3.44,1.76,4.8,3.2a1.1,1.1,0,0,1,.34.78,1.17,1.17,0,0,1-1.1,1.14.91.91,0,0,1-.72-.36,13,13,0,0,0-3.82-3A.89.89,0,0,1,34.65,66.78Z" transform="translate(-13.4 -64.48)"/><path class="cls-2" d="M64.5,76.06a32.72,32.72,0,0,1-7.9-1.74,46.45,46.45,0,0,1-8.82,1.84h-.1a1,1,0,0,1-.92-1.08.75.75,0,0,1,.74-.8,37.74,37.74,0,0,0,6.68-1,15.09,15.09,0,0,1-2.76-1.66,7.52,7.52,0,0,1-2.34,1.22,1.24,1.24,0,0,1-1.16-1.14.7.7,0,0,1,.5-.68,13.4,13.4,0,0,0,4.64-3,1,1,0,0,1,.68-.24c.5,0,1,.3,1,.74a.85.85,0,0,1-.18.48h6.74a1.41,1.41,0,0,1,1.52,1.38,1.39,1.39,0,0,1-.54,1.08A14.22,14.22,0,0,1,59,73.3a30.69,30.69,0,0,0,5.74.82.72.72,0,0,1,.72.8c0,.54-.36,1.14-.92,1.14ZM63.1,68c0-.2-.22-.3-.42-.3H49.46a.27.27,0,0,0-.3.3v1.5c0,.46-.46.7-.94.7s-.94-.24-.94-.7V67.38a1.33,1.33,0,0,1,1.5-1.5h6.16v-.54c0-.58.58-.86,1.14-.86s1.14.28,1.14.86v.54h6.26a1.33,1.33,0,0,1,1.5,1.5v2.1c0,.46-.46.7-.94.7s-.94-.24-.94-.7Zm-13,14.74a1.07,1.07,0,0,1-1.2-1.22V77.44a1.06,1.06,0,0,1,1.2-1.2H62.38a1.05,1.05,0,0,1,1.2,1.2v4.08c0,.82-.38,1.22-1.2,1.22Zm11.48-4.38c0-.16-.08-.36-.24-.36H51.14c-.16,0-.24.1-.24.26v2.46a.21.21,0,0,0,.24.24h10.2a.21.21,0,0,0,.24-.24ZM52.9,70.58a17.78,17.78,0,0,0,3.72,2c2.94-1.08,3.88-1.72,3.88-1.84s-.08-.18-.12-.18Z" transform="translate(-13.4 -64.48)"/><path class="cls-2" d="M74.2,74.2c-.46,2.08-.88,3.22-1.52,3.22-.46,0-.88-.56-.88-1.1a1,1,0,0,1,.12-.48,21.11,21.11,0,0,0,2.18-6H72.76c-.42,0-.64-.44-.64-.9s.22-.88.64-.88H74.2V65.36a.88.88,0,0,1,1-.88.87.87,0,0,1,.92.88V68h1.12a.83.83,0,0,1,.76.92.79.79,0,0,1-.76.86H76.07c1.86,2.76,1.86,3.32,1.86,3.44a1,1,0,0,1-.94,1,.52.52,0,0,1-.52-.48,8.55,8.55,0,0,0-.4-1.44V82.38a.87.87,0,0,1-.92.88.88.88,0,0,1-1-.88Zm3.89,8a1.07,1.07,0,0,1-1-1.1.83.83,0,0,1,.52-.76,14.33,14.33,0,0,0,4.1-2.86.75.75,0,0,1,.5-.22,1,1,0,0,1,.94,1,.71.71,0,0,1-.26.58C81,80.78,78.71,82.18,78.09,82.18Zm5.22-7.78H78.75a.89.89,0,0,1,0-1.76h4.54V71.32H79.53a.8.8,0,0,1-.78-.86.79.79,0,0,1,.78-.86h3.76V68.34H79a.89.89,0,0,1,0-1.76h2.28a2.92,2.92,0,0,0-.5-.84.53.53,0,0,1-.12-.4.89.89,0,0,1,.94-.8c.54,0,.8.46,1.54,2h2.16c.2-.38.56-1.06.78-1.56a.84.84,0,0,1,.8-.5.91.91,0,0,1,1,.82c0,.14-.08.34-.56,1.24h2.28a.89.89,0,0,1,0,1.76H85.17V69.6H89a.79.79,0,0,1,.78.86.8.8,0,0,1-.78.86h-3.8v1.32h4.48a.89.89,0,0,1,0,1.76H85.19v.34a12.36,12.36,0,0,0,1.28,2.68,15.94,15.94,0,0,0,1.86-2.34.76.76,0,0,1,.62-.34,1,1,0,0,1,1,.9.78.78,0,0,1-.14.46,17.51,17.51,0,0,1-2.3,2.56,11.9,11.9,0,0,0,2.64,2.14.8.8,0,0,1,.42.7,1.16,1.16,0,0,1-1,1.12c-.42,0-2.58-1.28-4.3-4.62v3.1c0,1.34-.3,2.1-1.88,2.1a11.2,11.2,0,0,1-2-.26,1,1,0,0,1-.8-1,.83.83,0,0,1,.8-.92.9.9,0,0,1,.22,0,7.31,7.31,0,0,0,1.34.2c.36,0,.42-.14.42-.48Zm-2.58,3.44a.76.76,0,0,1-.54-.2,13.54,13.54,0,0,0-1.58-1.5.69.69,0,0,1-.26-.58,1,1,0,0,1,.94-.94,1.09,1.09,0,0,1,.66.3c1.6,1.32,1.74,1.7,1.74,2A1,1,0,0,1,80.73,77.84Z" transform="translate(-13.4 -64.48)"/><path class="cls-2" d="M99.35,81.3a1.11,1.11,0,0,1-1.1-.94,28,28,0,0,1-.46-5.6,48,48,0,0,1,.92-9.44,1,1,0,0,1,1.06-.84,1.1,1.1,0,0,1,1.16,1,1,1,0,0,1,0,.24,35.07,35.07,0,0,0-1,8.14,31.87,31.87,0,0,0,.58,6,1.14,1.14,0,0,1,0,.26A1.13,1.13,0,0,1,99.35,81.3Zm10.2-.72c-5.48,0-7-2.66-7-3.5A1.08,1.08,0,0,1,103.61,76a1.18,1.18,0,0,1,.88.44c1,1.1,2,1.94,4.62,1.94a22.28,22.28,0,0,0,4.09-.46,1.77,1.77,0,0,1,.3,0A1.09,1.09,0,0,1,114.62,79a1.18,1.18,0,0,1-1,1.16A22.38,22.38,0,0,1,109.55,80.58Zm2.57-12.3a21.32,21.32,0,0,0-3.77-.32,32.69,32.69,0,0,0-4.2.3l-.16,0a1.05,1.05,0,0,1-1-1.1,1,1,0,0,1,.92-1,35.71,35.71,0,0,1,4.36-.28,30.83,30.83,0,0,1,4.11.28,1,1,0,0,1,1,1.06,1,1,0,0,1-1,1.06A1,1,0,0,1,112.12,68.28Z" transform="translate(-13.4 -64.48)"/><path class="cls-2" d="M129.11,66.16a32.06,32.06,0,0,0,.22,4.16,44.86,44.86,0,0,1,6.88-1.1,1.08,1.08,0,0,1,1.12,1.1,1,1,0,0,1-1,1.08c-8.66.58-12.54,3-12.54,5.38,0,2,2,3.36,6.64,3.36a38.6,38.6,0,0,0,6-.56.9.9,0,0,1,.22,0,1.06,1.06,0,0,1,1.08,1.12,1.14,1.14,0,0,1-1,1.16,43.89,43.89,0,0,1-5.8.46c-5.48,0-9.28-1.52-9.28-5.48,0-2.54,2.08-4.56,5.52-5.84a47.44,47.44,0,0,1-.46-5.4,1.14,1.14,0,0,1,1.24-1.1,1,1,0,0,1,1.14,1.06Z" transform="translate(-13.4 -64.48)"/><path class="cls-2" d="M149.7,80.36c5.8,0,7.9-2.32,7.9-4.64,0-1.48-.94-3.24-4.26-3.24a14,14,0,0,0-3.5.48c-1.16.28-2.24.64-3.36.94a1,1,0,0,1-.34,0,1,1,0,0,1-1-1.06.93.93,0,0,1,.78-.94c1.18-.26,2.38-.58,3.64-.82a19.18,19.18,0,0,1,3.78-.44c3.24,0,6.26,1.7,6.26,5.08s-3.12,6.54-9.9,6.54c-.76,0-1.66,0-1.66-1a.94.94,0,0,1,1-1Z" transform="translate(-13.4 -64.48)"/><path class="cls-2" d="M174.16,66.52c-2.72.18-5.7.5-8,.7H166a1,1,0,0,1-1.12-1,1,1,0,0,1,1-1.08c3.9-.26,8.68-.58,15.66-.62a1.14,1.14,0,0,1,1.26,1.1c0,1.1-1.14,1.12-1.82,1.12l-1.36,0a6.11,6.11,0,0,0-3,.68c-3.26,1.68-4.84,4.2-4.84,6.4,0,2.48,2,4.56,5.84,4.56a13.26,13.26,0,0,0,2.26-.22,1.23,1.23,0,0,1,.26,0,1.05,1.05,0,0,1,1.08,1.1,1.13,1.13,0,0,1-1,1.12,15,15,0,0,1-2.42.2c-5.28,0-8-3.08-8-6.54,0-2.54,1.46-5.28,4.44-7.2.14-.08.2-.14.2-.18s-.06-.06-.18-.06Z" transform="translate(-13.4 -64.48)"/><path class="cls-2" d="M194,82.16a1.32,1.32,0,0,1-1.48-1.5v-3.9a1.32,1.32,0,0,1,1.48-1.5h4.3V73.42h-5.4a.92.92,0,0,1,0-1.84h5.4V69.92H192v.46c0,4.4,0,8.24-1.22,11.52a.94.94,0,0,1-.9.66,1.1,1.1,0,0,1-1.14-1.08,1.07,1.07,0,0,1,.1-.4c1.18-3.18,1.22-6.68,1.22-11.54V66a1.32,1.32,0,0,1,1.5-1.48h13.52a1.32,1.32,0,0,1,1.5,1.48v2.46a1.33,1.33,0,0,1-1.5,1.5h-4.94v1.66h6a.92.92,0,0,1,0,1.84h-6v1.84H205a1.33,1.33,0,0,1,1.5,1.5v3.9a1.33,1.33,0,0,1-1.5,1.5Zm10.66-15.54a.28.28,0,0,0-.32-.32h-12c-.2,0-.3.1-.3.32V68.1h12.32a.29.29,0,0,0,.32-.32Zm0,10.78c0-.2-.1-.3-.32-.3h-9.66c-.22,0-.32.1-.32.3v2.66c0,.2.1.3.32.3h9.66c.22,0,.32-.1.32-.3Z" transform="translate(-13.4 -64.48)"/><path class="cls-2" d="M217.09,69.06a57.67,57.67,0,0,1-1.48,11.5.92.92,0,0,1-1,.7,1.09,1.09,0,0,1-1.16-1,1.17,1.17,0,0,1,0-.26,51.48,51.48,0,0,0,1.62-11.2A.83.83,0,0,1,216,68a1,1,0,0,1,1.06,1ZM229,77c-.56,4.62-.86,5.44-5.7,5.44-3.88,0-5-.74-5-3.3v-12c0-.58.54-.86,1.08-.86s1.06.28,1.06.86V79c0,.94.12,1.52,2.86,1.52,3.26,0,3.32,0,3.76-3.84a1,1,0,0,1,1-1,1,1,0,0,1,1,1.1Zm-2.52-3.64a.89.89,0,0,1-.8-.52,33.4,33.4,0,0,0-4.44-6.64,1,1,0,0,1-.24-.6,1.15,1.15,0,0,1,1.12-1.08.81.81,0,0,1,.58.26c2.52,2.78,5,6.64,5,7.42A1.25,1.25,0,0,1,226.46,73.32Zm5.74,6.44A1.16,1.16,0,0,1,231,80.84a.86.86,0,0,1-.92-.86,53.67,53.67,0,0,0-1.88-11.06,1.57,1.57,0,0,1,0-.28,1,1,0,0,1,1-.92.93.93,0,0,1,.94.66,54.94,54.94,0,0,1,2.1,11.28Z" transform="translate(-13.4 -64.48)"/><path class="cls-2" d="M249,82.76c-2.22,0-3.28-1.1-3.28-3.08V70.74l-.38.1-.16,0-.18,0a.75.75,0,0,1,0,.22.84.84,0,0,1-.84.92h-1.26v5.94a11.54,11.54,0,0,0,1.22-.5,1,1,0,0,1,.46-.12c.42,0,.64.42.64.88a1.08,1.08,0,0,1-.48,1,36.27,36.27,0,0,1-4.89,2,.69.69,0,0,1-.32.08,1.07,1.07,0,0,1-.94-1.16.88.88,0,0,1,.64-.92l1.8-.54V72h-1.22A.88.88,0,0,1,239,71a.87.87,0,0,1,.86-.94h1.22V65.7a.86.86,0,0,1,.95-.86.85.85,0,0,1,.92.86v4.4h1.26a1,1,0,0,1,.26,0,1.32,1.32,0,0,1,0-.28.91.91,0,0,1,.72-1s.58-.14.58-.12V66.54a.93.93,0,0,1,1-1,1,1,0,0,1,1,1v1.74l2.38-.56V65.34a1,1,0,0,1,2,0v1.92l2.78-.64a1.71,1.71,0,0,1,.5-.08c.82,0,1.26.54,1.26,1.56v6c0,2-.6,2.5-1.82,2.5a10.1,10.1,0,0,1-1.56-.18,1,1,0,0,1-.76-1,.78.78,0,0,1,.7-.86,1,1,0,0,1,.22,0,4.35,4.35,0,0,0,.82.14c.48,0,.5-.3.5-1.06V68.8a.15.15,0,0,0-.14-.16h0l-2.48.6v8.48a1,1,0,0,1-2,0v-8l-2.38.58v9.2c0,.92.42,1.4,1.7,1.4h3.28c1.78,0,2.26,0,2.56-2.68.08-.74.48-1,.9-1a1.19,1.19,0,0,1,1.1,1.26,1,1,0,0,1,0,.24c-.6,3.9-1.88,4.08-3.7,4.08Z" transform="translate(-13.4 -64.48)"/><path class="cls-2" d="M274.12,67.18a25.82,25.82,0,0,1-3.48,11.1,3.43,3.43,0,0,1-2.7,1.74c-1.6,0-4.28-2.14-4.28-6.34a9.07,9.07,0,0,1,9.44-9.2c5.75,0,9,3.86,9,8,0,7-6.39,8.5-8.49,8.5a1.14,1.14,0,0,1-1.2-1.14,1,1,0,0,1,1-1c5.77-.34,6.47-4.48,6.47-6.26,0-3.76-2.8-6.08-6.37-6.28A1,1,0,0,1,274.12,67.18Zm-8.44,6.44c0,2.3,1.24,4.1,2.16,4.1,1.94,0,3.92-7.54,4-10.62a.84.84,0,0,1,.54-.78A7.13,7.13,0,0,0,265.68,73.62Z" transform="translate(-13.4 -64.48)"/><path class="cls-2" d="M296.55,75.5a11.57,11.57,0,0,0,2.54,2.94,21.32,21.32,0,0,0,5.35-3,.71.71,0,0,1,.46-.16,1.18,1.18,0,0,1,1.14,1,.79.79,0,0,1-.34.62,21.29,21.29,0,0,1-4.78,2.66,19.9,19.9,0,0,0,5.18,1.72.73.73,0,0,1,.6.76,1.16,1.16,0,0,1-1.06,1.16.55.55,0,0,1-.18,0c-5.2-1.08-8.79-3.44-11-7.72h-3V81a38.86,38.86,0,0,0,5.48-.78.9.9,0,0,1,.24,0c.48,0,.72.46.72.9a.79.79,0,0,1-.54.84,47.77,47.77,0,0,1-8.3,1.2H289a1.1,1.1,0,0,1-1-1.14.77.77,0,0,1,.78-.84c.24,0,.46,0,.72,0V67.72a1.33,1.33,0,0,1,1.5-1.5H296v-.86a1.09,1.09,0,0,1,2.14,0v.86h5.33a1.33,1.33,0,0,1,1.5,1.5V74a1.33,1.33,0,0,1-1.5,1.5ZM303,68.42a.28.28,0,0,0-.32-.32h-11c-.2,0-.3.1-.3.32v1.5H303Zm0,3.34H291.41v1.88h11.31a.29.29,0,0,0,.32-.32Z" transform="translate(-13.4 -64.48)"/><path class="cls-2" d="M318.07,80.44c-1.9,0-5-1.94-5-10.62a32.65,32.65,0,0,1,.28-4.28,1.12,1.12,0,0,1,1.12-1.06,1,1,0,0,1,1.08,1,.82.82,0,0,1,0,.22,28.78,28.78,0,0,0-.32,4.42c0,5.78,1.66,8,2.72,8,.48,0,1.3-.38,2.18-3.54a1,1,0,0,1,1-.82A1.16,1.16,0,0,1,322.31,75,10.61,10.61,0,0,1,320.63,79,3.19,3.19,0,0,1,318.07,80.44Zm10.14-4a15,15,0,0,0-3.38-10,.92.92,0,0,1-.2-.56,1,1,0,0,1,1.06-1,1.11,1.11,0,0,1,.86.42,16.89,16.89,0,0,1,4,11.18,1.2,1.2,0,0,1-1.21,1.28,1.09,1.09,0,0,1-1.13-1.14Z" transform="translate(-13.4 -64.48)"/><path class="cls-2" d="M337.58,82.84a.86.86,0,0,1-.86-.94.94.94,0,0,1,.86-1h7.34V77.2H338.4a.85.85,0,0,1-.84-.94.93.93,0,0,1,.84-1h15.41a.93.93,0,0,1,.84,1,.85.85,0,0,1-.84.94h-6.75v3.68h7.53a.94.94,0,0,1,.86,1,.86.86,0,0,1-.86.94ZM338,74.6a1.13,1.13,0,0,1-1-1.22.88.88,0,0,1,.8-.94,5.75,5.75,0,0,0,5.2-3.68.84.84,0,0,1,.84-.62,1.14,1.14,0,0,1,1.16,1c0,1.06-2.32,5.12-6.9,5.44Zm11.37-.66a1.86,1.86,0,0,1-2.12-2.08v-2.8a.9.9,0,0,1,1-.84c.52,0,1,.28,1,.84V71.6c0,.3.12.4.42.4h2.52c.82,0,1-.26,1.24-1.26a1,1,0,0,1,.42-.56c-.44,0-.84-.26-.84-.68V68.18a.27.27,0,0,0-.3-.3H339.48a.27.27,0,0,0-.3.3V70c0,.46-.48.7-1,.7s-1-.24-1-.7V67.46a1.33,1.33,0,0,1,1.5-1.5h6.12V65.2c0-.48.54-.72,1.08-.72s1.08.24,1.08.72V66h6.45a1.33,1.33,0,0,1,1.5,1.5v2a.68.68,0,0,1-.56.64,1.1,1.1,0,0,1,1,1,1.2,1.2,0,0,1,0,.24c-.68,2.24-1.28,2.6-3.1,2.6Z" transform="translate(-13.4 -64.48)"/><path class="cls-2" d="M362.35,65.68a1.05,1.05,0,0,1,1.2-1.2h5.74c.82,0,1.22.38,1.22,1.2v4.56c0,.8-.4,1.12-1.22,1.12h-5v10.4a1,1,0,0,1-1.92,0Zm6.28.74a.21.21,0,0,0-.24-.24h-3.88a.21.21,0,0,0-.24.24v.72h4.36Zm0,2.26h-4.36v1.06h4.12c.16,0,.24-.08.24-.26Zm9.52,2.68h-5c-.82,0-1.22-.32-1.22-1.12V65.68c0-.82.4-1.2,1.22-1.2h5.74a1.05,1.05,0,0,1,1.2,1.2V80.52c0,1.44-.54,2.08-2.16,2.08a11.55,11.55,0,0,1-2.14-.22,1,1,0,0,1-.84-1A1.56,1.56,0,0,1,375,81h-7.34a1.38,1.38,0,0,1-1.42-1.4V73.7a1.27,1.27,0,0,1,1.42-1.4h7a1.37,1.37,0,0,1,1.4,1.4v5.86a2.66,2.66,0,0,1-.12.84,12.12,12.12,0,0,0,1.5.18c.54,0,.72-.16.72-.52Zm-4,3c0-.18-.08-.26-.26-.26h-5.54c-.18,0-.26.08-.26.26v1.22h6.06Zm0,3h-6.06v1.5c0,.18.08.26.26.26h5.54c.18,0,.26-.08.26-.26Zm4-10.94a.21.21,0,0,0-.24-.24H374a.21.21,0,0,0-.24.24v.72h4.36Zm0,2.26h-4.36v.8c0,.18.08.26.24.26h4.12Z" transform="translate(-13.4 -64.48)"/><path class="cls-2" d="M393.13,83.42a12.7,12.7,0,0,1,0-18.76.69.69,0,0,1,.48-.18,1,1,0,0,1,.92.94.83.83,0,0,1-.32.64,10.64,10.64,0,0,0,0,15.92.87.87,0,0,1,.32.66,1,1,0,0,1-.9,1A.76.76,0,0,1,393.13,83.42Z" transform="translate(-13.4 -64.48)"/><path class="cls-2" d="M403,81a1.33,1.33,0,0,1-1.5-1.5v-13A1.33,1.33,0,0,1,403,65h3.24a1.33,1.33,0,0,1,1.5,1.5v13a1.33,1.33,0,0,1-1.5,1.5Zm2.86-13.84a.27.27,0,0,0-.3-.3h-1.88a.28.28,0,0,0-.32.3v4.64h2.5Zm0,6.52h-2.5v5.16a.28.28,0,0,0,.32.3h1.88a.27.27,0,0,0,.3-.3Zm13.58-7.48c0,5-.36,6.24-2.92,6.24a19.27,19.27,0,0,1-2.16-.16.91.91,0,0,1-.74-1,.93.93,0,0,1,.92-1h.14c.66.08,1.16.18,1.54.18,1.14,0,1.2-.72,1.2-4a.2.2,0,0,0-.2-.18H414c-.24,3-1.36,5.2-4.74,6.52a.68.68,0,0,1-.28,0,1.18,1.18,0,0,1-1-1.14.75.75,0,0,1,.56-.74c2.7-1,3.3-2.56,3.52-4.68h-2.8a.87.87,0,0,1-.86-.94.86.86,0,0,1,.86-.94h9a1.19,1.19,0,0,1,1.24,1.28Zm-9,16a1.33,1.33,0,0,1-1.5-1.5V74.84a1.37,1.37,0,0,1,1.56-1.5h6.94a1.33,1.33,0,0,1,1.5,1.5V80.7a1.33,1.33,0,0,1-1.5,1.5ZM417,75.52a.28.28,0,0,0-.32-.3h-5.44a.27.27,0,0,0-.3.3V80a.27.27,0,0,0,.3.3h5.44A.28.28,0,0,0,417,80Z" transform="translate(-13.4 -64.48)"/><path class="cls-2" d="M430.21,74a15.9,15.9,0,0,1-2.68,4.92,1,1,0,0,1-.73.34,1.16,1.16,0,0,1-1-1.18.81.81,0,0,1,.25-.62,18.59,18.59,0,0,0,3.82-5.92H427a1,1,0,0,1,0-1.9h3.26V67.16c-.76.08-1.64.18-2.6.24h0a1.12,1.12,0,0,1-1-1.12.74.74,0,0,1,.78-.76,31.5,31.5,0,0,0,7-1,.82.82,0,0,1,.22,0,1.06,1.06,0,0,1,1,1.1.8.8,0,0,1-.64.86c-.58.12-1.48.3-2.7.5V69.6H435a1,1,0,0,1,0,1.9h-2.56c.68.64,3.36,3.32,3.36,4.1a1.25,1.25,0,0,1-1.1,1.18.85.85,0,0,1-.74-.54,17.4,17.4,0,0,0-1.82-3.12v9.12a1,1,0,0,1-1.92,0Zm7.44,8a1.33,1.33,0,0,1-1.5-1.5V66.84a1.33,1.33,0,0,1,1.5-1.5h4.82a1.31,1.31,0,0,1,1.48,1.5V80.42a1.31,1.31,0,0,1-1.48,1.5ZM442,67.52a.29.29,0,0,0-.32-.32h-3.3a.29.29,0,0,0-.32.32v12.2a.28.28,0,0,0,.32.32h3.3a.28.28,0,0,0,.32-.32Z" transform="translate(-13.4 -64.48)"/><path class="cls-2" d="M452.46,65.52a1.13,1.13,0,0,1,2.26,0V78.58c0,.46.28.64.7.64A13.78,13.78,0,0,0,465.9,71a1.14,1.14,0,0,1,2.24.38,1.26,1.26,0,0,1-.1.52c-2.74,6.46-9.74,9.64-13,9.64a2.35,2.35,0,0,1-2.6-2.58Z" transform="translate(-13.4 -64.48)"/><path class="cls-2" d="M476.46,65.48a1,1,0,0,1,1.14-1,1,1,0,0,1,1.14,1v4.34a70,70,0,0,1,11.6,3.9,1.14,1.14,0,0,1,.68,1A1.21,1.21,0,0,1,489.9,76a1.09,1.09,0,0,1-.56-.16,57.86,57.86,0,0,0-10.6-3.78V81.6a1,1,0,0,1-1.12,1.08,1.08,1.08,0,0,1-1.16-1.08Z" transform="translate(-13.4 -64.48)"/><path class="cls-2" d="M501.61,80c-2,0-3-.92-3-2.68V67.14c0-1.68,1-2.66,2.92-2.66h9.87c1.92,0,2.9,1,2.9,2.66V77.28c0,1.72-1,2.68-2.9,2.68Zm10.47-12.6a.81.81,0,0,0-.88-.86h-9.47a.8.8,0,0,0-.88.86V77a.8.8,0,0,0,.9.86h9.42a.8.8,0,0,0,.91-.86Z" transform="translate(-13.4 -64.48)"/><path class="cls-2" d="M540.32,78c0,4.12-.94,4.6-1.44,4.6-.94,0-2.34-1.26-2.34-7.86V66.64a.29.29,0,0,0-.32-.32H525.16c-.23,0-.32.1-.32.32v2.22c0,6.42-.45,9.82-1.31,13a.83.83,0,0,1-.81.72,1.16,1.16,0,0,1-1.11-1.2,1.62,1.62,0,0,1,.06-.4c.76-2.72,1.18-5.4,1.18-12.08V66a1.32,1.32,0,0,1,1.5-1.48H537A1.31,1.31,0,0,1,538.46,66v8.18c0,4.36.34,5.68.48,5.68s.14-.34.18-1.28c0-.32,0-.7,0-1.16s.22-.76.5-.76.66.38.68,1.06Zm-8.78-1.24v2.42a13.75,13.75,0,0,0,1.94-.3c-.14-.24-.3-.46-.4-.62a.93.93,0,0,1-.14-.48,1,1,0,0,1,1-.9.9.9,0,0,1,.72.4c1.88,2.78,2.1,3.52,2.1,3.68a1.12,1.12,0,0,1-1.06,1,.82.82,0,0,1-.72-.48c-.18-.28-.32-.6-.48-.88-2,.3-4.92.64-8.42.88h0c-.61,0-.88-.64-.88-1.18a.71.71,0,0,1,.74-.76c1.24-.06,2.54-.14,3.76-.24V76.72H527.4a1.33,1.33,0,0,1-1.5-1.5V72.06a1.33,1.33,0,0,1,1.5-1.5h2.26v-1.3l-1.54.08c-.52,0-1,0-1.56,0h0c-.58,0-1-.64-1-1.16a.69.69,0,0,1,.76-.74h.3a61.88,61.88,0,0,0,8.2-.52.56.56,0,0,1,.16,0,1.15,1.15,0,0,1,1,1.14.73.73,0,0,1-.68.72c-.6.1-2,.22-3.76.36v1.4h2.34a1.32,1.32,0,0,1,1.48,1.5v3.16a1.32,1.32,0,0,1-1.48,1.5Zm-1.88-4.36H528a.27.27,0,0,0-.3.3v2c0,.22.1.32.3.32h1.7Zm4,.3c0-.2-.1-.3-.32-.3h-1.76v2.58h1.76a.28.28,0,0,0,.32-.32Z" transform="translate(-13.4 -64.48)"/><path class="cls-2" d="M555.31,66.52c-2.72.18-5.7.5-8,.7h-.14a1,1,0,0,1-1.12-1,1,1,0,0,1,1-1.08c3.9-.26,8.68-.58,15.66-.62a1.15,1.15,0,0,1,1.27,1.1c0,1.1-1.15,1.12-1.83,1.12l-1.36,0a6.11,6.11,0,0,0-3,.68c-3.26,1.68-4.84,4.2-4.84,6.4,0,2.48,2,4.56,5.84,4.56a13.26,13.26,0,0,0,2.26-.22,1.23,1.23,0,0,1,.26,0,1.05,1.05,0,0,1,1.08,1.1,1.13,1.13,0,0,1-1,1.12,15,15,0,0,1-2.42.2c-5.28,0-8-3.08-8-6.54,0-2.54,1.46-5.28,4.44-7.2.14-.08.2-.14.2-.18s-.06-.06-.18-.06Zm5.84,6a.68.68,0,0,1-.64-.44A19.59,19.59,0,0,0,558.85,69a.65.65,0,0,1-.12-.36.84.84,0,0,1,.86-.74.77.77,0,0,1,.64.36,10.62,10.62,0,0,1,1.82,3.44A.88.88,0,0,1,561.15,72.54Zm2.66-.84a.69.69,0,0,1-.66-.42,16.88,16.88,0,0,0-1.56-2.8.69.69,0,0,1-.14-.4.81.81,0,0,1,.84-.72.84.84,0,0,1,.7.38c1.63,2.48,1.73,3,1.73,3.2A.86.86,0,0,1,563.81,71.7Z" transform="translate(-13.4 -64.48)"/><path class="cls-2" d="M571.67,83.62a1,1,0,0,1-.9-1,.9.9,0,0,1,.32-.66,10.68,10.68,0,0,0,0-15.92.83.83,0,0,1-.32-.64,1,1,0,0,1,.92-.94.69.69,0,0,1,.48.18,12.74,12.74,0,0,1,0,18.76A.76.76,0,0,1,571.67,83.62Z" transform="translate(-13.4 -64.48)"/><path class="cls-2" d="M163.2,109.79l-.16.2a1,1,0,0,1-.72.36,1.19,1.19,0,0,1-1.14-1.08.65.65,0,0,1,.16-.46,19.73,19.73,0,0,0,2.88-6.58.8.8,0,0,1,.86-.54c.56,0,1.2.36,1.2.9a17.37,17.37,0,0,1-1,3.38v13.65a.87.87,0,0,1-1,.86,1,1,0,0,1-1.06-.86Zm8.72,6.21v3.48a1,1,0,0,1-2.08,0V105.93h-.36a21.06,21.06,0,0,1-2.14,4.48.79.79,0,0,1-.7.38,1.31,1.31,0,0,1-1.24-1.14.84.84,0,0,1,.12-.42,18,18,0,0,0,2.84-6.82c.08-.44.54-.64,1-.64s1,.24,1,.76a.68.68,0,0,1,0,.2c-.1.46-.22.9-.34,1.3h9a1,1,0,0,1,0,1.9h-7.11V109h6.71a.93.93,0,0,1,0,1.86h-6.71v3.3h6.71a.93.93,0,0,1,0,1.85Z" transform="translate(-13.4 -64.48)"/><path class="cls-2" d="M189.86,118.36c5.53,0,9.19-2.71,9.19-7.91,0-3-1.38-5.82-3.94-5.82-3.64,0-5.43,5.48-5.43,7.92a6.88,6.88,0,0,0,.08,1.08.86.86,0,0,1,0,.22,1.15,1.15,0,0,1-1.14,1.17c-.74,0-1.3-.39-1.3-4.15a31.9,31.9,0,0,1,.9-7.34,1.13,1.13,0,0,1,1.12-.92,1,1,0,0,1,1.08,1,1,1,0,0,1-.06.34,26.53,26.53,0,0,0-.8,3.42v.06a1.26,1.26,0,0,0,.16-.36,6.1,6.1,0,0,1,5.59-4.22c3.32,0,5.88,3,5.88,7.58,0,4.78-3,10.09-11.43,10.09-1.08,0-1.36-.68-1.36-1.14a.93.93,0,0,1,.92-1Z" transform="translate(-13.4 -64.48)"/><path class="cls-2" d="M211.15,120.48a1.11,1.11,0,0,1-1.1-.94,28,28,0,0,1-.46-5.6,48,48,0,0,1,.92-9.45,1,1,0,0,1,1.06-.84,1.1,1.1,0,0,1,1.16,1,1,1,0,0,1,0,.24,35.07,35.07,0,0,0-1,8.14,32,32,0,0,0,.58,6,1.14,1.14,0,0,1,0,.26A1.13,1.13,0,0,1,211.15,120.48Zm10.2-.72c-5.48,0-7-2.66-7-3.5a1.07,1.07,0,0,1,1.08-1.08,1.2,1.2,0,0,1,.88.43c1,1.11,2,2,4.62,2a22.28,22.28,0,0,0,4.08-.46,1.77,1.77,0,0,1,.3,0,1.09,1.09,0,0,1,1.12,1.12,1.18,1.18,0,0,1-1,1.16A22.37,22.37,0,0,1,221.35,119.76Zm2.56-12.31a21.2,21.2,0,0,0-3.76-.32,32.69,32.69,0,0,0-4.2.3l-.16,0a1.05,1.05,0,0,1-1-1.1,1,1,0,0,1,.92-1,35.71,35.71,0,0,1,4.36-.28,30.68,30.68,0,0,1,4.1.28,1,1,0,0,1,1,1.06,1,1,0,0,1-1,1.06A1,1,0,0,1,223.91,107.45Z" transform="translate(-13.4 -64.48)"/><path class="cls-2" d="M242.6,105a.93.93,0,0,1,0-1.86H249a1.33,1.33,0,0,1,1.34,1.5c0,1.24-1.08,3.26-2.8,4.8a13.76,13.76,0,0,0,2.78,1.3.78.78,0,0,1,.54.76,1.09,1.09,0,0,1-1,1.1,10.66,10.66,0,0,1-3.88-2,11,11,0,0,1-3.62,1.56,1.06,1.06,0,0,1-.94-1,1,1,0,0,1-.58.2.87.87,0,0,1-.46-.14,15.67,15.67,0,0,0-1.64-.82,11.41,11.41,0,0,1-4.92,2.35h-.2a1,1,0,0,1-.9-1,.69.69,0,0,1,.54-.7,11.84,11.84,0,0,0,3.56-1.5c-.84-.34-1.7-.62-2.58-1-.44-.16-.72-.44-.72-.78a.91.91,0,0,1,.18-.52c.38-.6.7-1.18,1-1.74H233.3a.93.93,0,0,1,0-1.86h2.32a10.65,10.65,0,0,0,.46-1.28,1,1,0,0,1,1-.64c.54,0,1.12.32,1.12.78a.53.53,0,0,1-.06.24l-.36.9h2.52c.8,0,1.3.42,1.3,1.06A10.15,10.15,0,0,1,240,109c1.76.68,1.76,1.1,1.76,1.42v.12l.16-.06a13.32,13.32,0,0,0,2.6-1.06c-1.34-1.3-2.38-2.72-2.38-3.2a1,1,0,0,1,1-.86.72.72,0,0,1,.68.38,12.26,12.26,0,0,0,2.16,2.62,7.23,7.23,0,0,0,2.16-3.14s0-.06,0-.08-.1-.12-.16-.12Zm-.74,10.15c-1.1,2.9-3.46,4.48-7.64,5.3a1.77,1.77,0,0,1-.3,0,1,1,0,0,1-1-1,.79.79,0,0,1,.72-.78c3.48-.6,5.4-1.7,6.32-3.54h-6.1a.93.93,0,0,1,0-1.85h6.6c.1-.66.2-1.24,1.08-1.24a.73.73,0,0,1,.82.73v.13l-.06.38h6.54a1.45,1.45,0,0,1,1.52,1.62c0,4.07-.22,5.47-3.52,5.47a23.4,23.4,0,0,1-2.8-.22.93.93,0,0,1-.82-1,.83.83,0,0,1,.88-.9h.16a22.73,22.73,0,0,0,2.42.2c1.74,0,1.78-.72,1.78-3.16,0-.17-.08-.18-.18-.18Zm-5-9.53c-.36.62-.7,1.16-1,1.66a.15.15,0,0,0,0,.08c0,.06,0,.12.14.14.74.22,1.54.48,2.36.74a8.58,8.58,0,0,0,1.2-2.38s0-.06,0-.08-.06-.16-.18-.16Z" transform="translate(-13.4 -64.48)"/><path class="cls-2" d="M260.58,107.85a32.67,32.67,0,0,1-1-3.88,1.05,1.05,0,0,1,1.1-1,1,1,0,0,1,1,.82c.16,1,.38,2,.62,3a11,11,0,0,1,4.86-1.12,5.62,5.62,0,0,1,.58,0c.14-.7.26-1.42.34-2.14a.94.94,0,0,1,1-.86,1.14,1.14,0,0,1,1.2,1,12.4,12.4,0,0,1-.46,2.3,7,7,0,0,1,5.5,6.8c0,3.86-3.06,7.69-8.32,7.69a1,1,0,0,1-1-1.08.92.92,0,0,1,1-1c4.08,0,6.2-3,6.2-5.77a4.89,4.89,0,0,0-3.84-4.88,28.46,28.46,0,0,1-3.48,7.32,6.64,6.64,0,0,0,.52.72,1.29,1.29,0,0,1,.32.81,1.2,1.2,0,0,1-1.14,1.16c-.28,0-.56-.14-1-.86-1.06,1.24-2,2.28-3.4,2.28-1.92,0-3.66-2.11-3.66-5a8.16,8.16,0,0,1,3.06-6.3Zm.6,1.88A6,6,0,0,0,259.3,114c0,1.69.84,3.29,1.88,3.29a1.83,1.83,0,0,0,1.28-.71,14.46,14.46,0,0,0,1.08-1.25A37.48,37.48,0,0,1,261.18,109.73Zm5.82-2.26a8.91,8.91,0,0,0-4.16,1,27.41,27.41,0,0,0,2,4.86,23.75,23.75,0,0,0,2.52-5.9Z" transform="translate(-13.4 -64.48)"/><path class="cls-2" d="M290,106.49c-2.72.18-5.7.5-8,.7h-.14a1,1,0,0,1-1.12-1,1,1,0,0,1,1-1.08c3.9-.26,8.68-.58,15.66-.62a1.14,1.14,0,0,1,1.26,1.1c0,1.1-1.14,1.12-1.82,1.12l-1.36,0a6.11,6.11,0,0,0-3,.68c-3.26,1.68-4.84,4.2-4.84,6.41,0,2.48,2,4.56,5.84,4.56a13.26,13.26,0,0,0,2.26-.22,1.23,1.23,0,0,1,.26,0,1.05,1.05,0,0,1,1.08,1.1,1.13,1.13,0,0,1-1,1.12,15,15,0,0,1-2.42.2c-5.28,0-8-3.08-8-6.54,0-2.55,1.46-5.29,4.44-7.21.14-.08.2-.14.2-.18s-.06-.06-.18-.06Z" transform="translate(-13.4 -64.48)"/><path class="cls-2" d="M315.87,116.45c0,2.73-2.26,4-4.7,4-2.74,0-5-1.46-5-3.58v0c0-1.92,1.84-3.41,5.5-3.41h.2a12.74,12.74,0,0,1,2,.16l0-1.64,0-.76h-1.12c-1.78,0-3.58,0-5.2-.1a1,1,0,0,1-1.1-1,1,1,0,0,1,1-1h.1c1.6.12,3.28.18,5,.18l1.32,0c0-.92-.06-1.82-.08-2.72-2.24,0-4.56.14-6.84.34h-.14a1,1,0,0,1-1-.94,1,1,0,0,1,1-1c2.28-.16,4.68-.26,7-.3,0-.52,0-1,0-1.54a1,1,0,0,1,1-1,1,1,0,0,1,1.06.94v0c0,.48,0,1,0,1.48,2,0,3.84,0,5.58.08a1,1,0,0,1,1,.94,1,1,0,0,1-1,1h0c-1.74-.08-3.62-.12-5.56-.12,0,.9,0,1.8,0,2.68a43.52,43.52,0,0,0,4.9-.42l.18,0a.92.92,0,0,1,1,.94,1,1,0,0,1-.9,1,46.07,46.07,0,0,1-5.12.42c0,.16,0,.46.1,2.9a14.68,14.68,0,0,1,5.92,3.41,1.13,1.13,0,0,1,.36.8,1.18,1.18,0,0,1-1.14,1.14,1.14,1.14,0,0,1-.88-.44,11.24,11.24,0,0,0-4.24-2.91Zm-2-1a9.93,9.93,0,0,0-2.16-.24h-.24c-2,0-3.26.58-3.26,1.64s1.34,1.72,3,1.72a2.4,2.4,0,0,0,2.68-2.62Z" transform="translate(-13.4 -64.48)"/><path class="cls-2" d="M334.61,120.48c-1.9,0-5-1.94-5-10.63a32.65,32.65,0,0,1,.28-4.28,1.12,1.12,0,0,1,1.12-1.06,1,1,0,0,1,1.08,1,.82.82,0,0,1,0,.22,28.78,28.78,0,0,0-.32,4.42c0,5.79,1.66,8,2.72,8,.48,0,1.3-.38,2.18-3.55a1,1,0,0,1,1-.82,1.17,1.17,0,0,1,1.16,1.19,10.61,10.61,0,0,1-1.68,4.06A3.19,3.19,0,0,1,334.61,120.48Zm10.14-4a15,15,0,0,0-3.38-10,.92.92,0,0,1-.2-.56,1,1,0,0,1,1.06-1,1.11,1.11,0,0,1,.86.42,16.9,16.9,0,0,1,4,11.19,1.2,1.2,0,0,1-1.21,1.28,1.09,1.09,0,0,1-1.13-1.14Z" transform="translate(-13.4 -64.48)"/><path class="cls-2" d="M357.32,118.36c5.52,0,9.18-2.71,9.18-7.91,0-3-1.38-5.82-3.94-5.82-3.64,0-5.42,5.48-5.42,7.92a6.88,6.88,0,0,0,.08,1.08.86.86,0,0,1,0,.22A1.15,1.15,0,0,1,356.1,115c-.74,0-1.3-.39-1.3-4.15a31.9,31.9,0,0,1,.9-7.34,1.13,1.13,0,0,1,1.12-.92,1,1,0,0,1,1.08,1,1,1,0,0,1-.06.34,26.53,26.53,0,0,0-.8,3.42v.06a1.26,1.26,0,0,0,.16-.36,6.09,6.09,0,0,1,5.58-4.22c3.32,0,5.89,3,5.89,7.58,0,4.78-3,10.09-11.43,10.09-1.08,0-1.36-.68-1.36-1.14a.93.93,0,0,1,.92-1Z" transform="translate(-13.4 -64.48)"/><path class="cls-2" d="M386.54,116.45c0,2.73-2.26,4-4.7,4-2.74,0-5-1.46-5-3.58v0c0-1.92,1.84-3.41,5.5-3.41h.2a12.74,12.74,0,0,1,2,.16l0-1.64,0-.76h-1.12c-1.78,0-3.58,0-5.2-.1a1,1,0,0,1-1.1-1,1,1,0,0,1,1-1h.1c1.6.12,3.28.18,5,.18l1.32,0c0-.92-.06-1.82-.08-2.72-2.24,0-4.56.14-6.84.34h-.14a1,1,0,0,1-1-.94,1,1,0,0,1,1-1c2.28-.16,4.68-.26,7-.3,0-.52,0-1,0-1.54a1,1,0,0,1,1-1,1,1,0,0,1,1.06.94v0c0,.48,0,1,0,1.48,2,0,3.84,0,5.58.08a1,1,0,0,1,1,.94,1,1,0,0,1-1,1h0c-1.74-.08-3.62-.12-5.56-.12,0,.9,0,1.8,0,2.68a43.52,43.52,0,0,0,4.9-.42l.18,0a.92.92,0,0,1,1,.94,1,1,0,0,1-.9,1,46.07,46.07,0,0,1-5.12.42c0,.16,0,.46.1,2.9a14.68,14.68,0,0,1,5.92,3.41,1.13,1.13,0,0,1,.36.8,1.18,1.18,0,0,1-1.14,1.14,1.14,1.14,0,0,1-.88-.44,11.24,11.24,0,0,0-4.24-2.91Zm-2-1a9.93,9.93,0,0,0-2.16-.24h-.24c-2,0-3.26.58-3.26,1.64s1.34,1.72,3,1.72a2.4,2.4,0,0,0,2.68-2.62Z" transform="translate(-13.4 -64.48)"/><path class="cls-2" d="M417.76,106.81c-1.4,0-2.8-.06-4.2-.08,0,1.12,0,2.24,0,3.36a5.67,5.67,0,0,1,1,3.36c0,3.12-2.34,7-10.46,7-.36,0-.74,0-1.14,0a1.14,1.14,0,0,1-1.18-1.14.94.94,0,0,1,1-1h.1c.64,0,1.24.08,1.8.08,5.6,0,7.54-2.23,7.66-4.18a4.54,4.54,0,0,1-3.84,1.91c-3.2,0-4.94-1.75-4.94-3.82s1.94-4,5.18-4a6.06,6.06,0,0,1,2.84.66l-.06-2.26h-1.34c-3.06,0-6.12.06-9.18.16h-.06a1,1,0,0,1-1-1,.92.92,0,0,1,.92-1q5.28-.06,10.56-.06c-.06-.74-.08-1.66-.08-1.66a1,1,0,0,1,1.06-.92,1,1,0,0,1,1.1,1c0,.54,0,1.06,0,1.6h4.3a.93.93,0,0,1,1,1,1,1,0,0,1-1,1Zm-9,3.32c-1.94,0-3.12,1-3.12,2.2s1.06,2,2.94,2,3.08-1.17,3.08-2.27S410.78,110.13,408.78,110.13Z" transform="translate(-13.4 -64.48)"/><path class="cls-2" d="M428.74,118.88a1.59,1.59,0,1,1,1.6,1.6A1.6,1.6,0,0,1,428.74,118.88Zm.34-15a1.25,1.25,0,0,1,1.28-1.38,1.28,1.28,0,0,1,1.32,1.34v.06l-.4,11.29a.9.9,0,1,1-1.8,0Z" transform="translate(-13.4 -64.48)"/></svg>