<svg id="レイヤー_1" data-name="レイヤー 1" xmlns="http://www.w3.org/2000/svg" viewBox="0 0 253 29.23"><defs><style>.cls-1{fill:#edeedc;}</style></defs><path class="cls-1" d="M19.68,7.93a6,6,0,0,0-2.22-1.68,7.27,7.27,0,0,0-3-.59A7.55,7.55,0,0,0,8.66,8.19,8.79,8.79,0,0,0,7,11a10.37,10.37,0,0,0-.61,3.57A10.38,10.38,0,0,0,7,18.21,9.25,9.25,0,0,0,8.64,21a7.61,7.61,0,0,0,2.5,1.86,7.11,7.11,0,0,0,3.08.67,6.84,6.84,0,0,0,3.34-.79,6.56,6.56,0,0,0,2.4-2.2l5.1,3.81a10.68,10.68,0,0,1-4.48,3.66A13.9,13.9,0,0,1,15,29.23a17.12,17.12,0,0,1-6-1,13.74,13.74,0,0,1-4.76-2.92,13.38,13.38,0,0,1-3.12-4.62A15.64,15.64,0,0,1,0,14.61a15.67,15.67,0,0,1,1.12-6A13.43,13.43,0,0,1,4.24,4,13.76,13.76,0,0,1,9,1a17.12,17.12,0,0,1,6-1,14.11,14.11,0,0,1,2.45.22A13.14,13.14,0,0,1,20,.9a11.58,11.58,0,0,1,2.38,1.26,9.49,9.49,0,0,1,2,1.92Z"/><path class="cls-1" d="M37,14.61a15.67,15.67,0,0,1,1.12-6A13.43,13.43,0,0,1,41.23,4,13.76,13.76,0,0,1,46,1,18.22,18.22,0,0,1,58,1,13.81,13.81,0,0,1,62.76,4a13.16,13.16,0,0,1,3.12,4.61,15.67,15.67,0,0,1,1.12,6,15.64,15.64,0,0,1-1.12,6.05,13.11,13.11,0,0,1-3.12,4.62A13.79,13.79,0,0,1,58,28.2a18,18,0,0,1-12,0,13.74,13.74,0,0,1-4.76-2.92,13.38,13.38,0,0,1-3.12-4.62A15.64,15.64,0,0,1,37,14.61Zm6.36,0a10.38,10.38,0,0,0,.61,3.6A8.38,8.38,0,0,0,45.71,21a8,8,0,0,0,2.73,1.86,9.77,9.77,0,0,0,7.11,0A8,8,0,0,0,58.28,21,8.38,8.38,0,0,0,60,18.21a10.15,10.15,0,0,0,.61-3.6A10.14,10.14,0,0,0,60,11a8.27,8.27,0,0,0-1.75-2.85,8,8,0,0,0-2.73-1.87,9.9,9.9,0,0,0-7.11,0,8,8,0,0,0-2.73,1.87A8.27,8.27,0,0,0,44,11,10.37,10.37,0,0,0,43.35,14.61Z"/><path class="cls-1" d="M82.33.71h8.33L102.48,20h.08V.71h6.13V28.52h-8L88.54,8.72h-.08v19.8H82.33Z"/><path class="cls-1" d="M130.63,6.13H122.7V.71h22V6.13h-7.94V28.52h-6.13Z"/><path class="cls-1" d="M165.21.71h5.07l12.1,27.81h-6.92l-2.39-5.89h-10.8L160,28.52h-6.76Zm2.36,8.09-3.38,8.64H171Z"/><path class="cls-1" d="M213.05,7.93a6,6,0,0,0-2.22-1.68,7.27,7.27,0,0,0-3-.59A7.55,7.55,0,0,0,202,8.19,8.79,8.79,0,0,0,200.34,11a10.14,10.14,0,0,0-.61,3.57,10.15,10.15,0,0,0,.61,3.6A9.05,9.05,0,0,0,202,21a7.67,7.67,0,0,0,2.49,1.86,7.19,7.19,0,0,0,3.09.67,6.84,6.84,0,0,0,3.34-.79,6.46,6.46,0,0,0,2.39-2.2l5.11,3.81A10.68,10.68,0,0,1,214,28.05a13.91,13.91,0,0,1-5.58,1.18,17.2,17.2,0,0,1-6-1,13.79,13.79,0,0,1-4.75-2.92,13.24,13.24,0,0,1-3.12-4.62,15.64,15.64,0,0,1-1.12-6.05,15.67,15.67,0,0,1,1.12-6A13.29,13.29,0,0,1,197.61,4,13.81,13.81,0,0,1,202.36,1a17.2,17.2,0,0,1,6-1,14.13,14.13,0,0,1,2.46.22,13.14,13.14,0,0,1,2.51.68,11.58,11.58,0,0,1,2.38,1.26,9.49,9.49,0,0,1,2,1.92Z"/><path class="cls-1" d="M238.94,6.13H231V.71h22V6.13h-7.93V28.52h-6.13Z"/></svg>