<svg id="レイヤー_1" data-name="レイヤー 1" xmlns="http://www.w3.org/2000/svg" viewBox="0 0 54 10"><defs><style>.cls-1{fill:#edeedc;}</style></defs><path class="cls-1" d="M4.11.24H5.85L10,9.76H7.62l-.82-2H3.1l-.79,2H0ZM4.92,3,3.76,6H6.09Z"/><path class="cls-1" d="M12.67.24h3.54a8.76,8.76,0,0,1,1.25.09,3.34,3.34,0,0,1,1.12.35,2.18,2.18,0,0,1,.81.73,2.29,2.29,0,0,1,.31,1.25A2,2,0,0,1,19.25,4a2.5,2.5,0,0,1-1.19.76v0a2.92,2.92,0,0,1,.85.27,2.47,2.47,0,0,1,.66.49,2.3,2.3,0,0,1,.42.71,2.47,2.47,0,0,1,.15.86,2.36,2.36,0,0,1-.32,1.26,2.71,2.71,0,0,1-.84.81,3.53,3.53,0,0,1-1.15.44,6,6,0,0,1-1.27.14H12.67Zm2.09,3.81h1.52A2,2,0,0,0,16.76,4a1.13,1.13,0,0,0,.42-.17.8.8,0,0,0,.3-.33A.9.9,0,0,0,17.6,3a.83.83,0,0,0-.13-.49.8.8,0,0,0-.33-.3,1.6,1.6,0,0,0-.45-.16,3,3,0,0,0-.5,0H14.76Zm0,3.93h1.88a2,2,0,0,0,.49-.05,1.3,1.3,0,0,0,.45-.19.93.93,0,0,0,.33-.35A1,1,0,0,0,18,6.87a.81.81,0,0,0-.17-.55A1.1,1.1,0,0,0,17.45,6a2.34,2.34,0,0,0-.55-.15,3.65,3.65,0,0,0-.55,0H14.76Z"/><path class="cls-1" d="M22.82,5a5.49,5.49,0,0,1,.38-2.07,4.6,4.6,0,0,1,1.07-1.58,4.75,4.75,0,0,1,1.63-1A6.21,6.21,0,0,1,30,.35a4.75,4.75,0,0,1,1.63,1,4.75,4.75,0,0,1,1.07,1.58A5.49,5.49,0,0,1,33.09,5a5.49,5.49,0,0,1-.38,2.07,4.75,4.75,0,0,1-1.07,1.58,4.75,4.75,0,0,1-1.63,1,6.21,6.21,0,0,1-4.11,0,4.75,4.75,0,0,1-1.63-1A4.6,4.6,0,0,1,23.2,7.07,5.49,5.49,0,0,1,22.82,5ZM25,5a3.69,3.69,0,0,0,.2,1.23,2.93,2.93,0,0,0,.6,1,2.85,2.85,0,0,0,.94.64,3.47,3.47,0,0,0,2.43,0A2.76,2.76,0,0,0,30.7,6.23,3.45,3.45,0,0,0,30.91,5a3.43,3.43,0,0,0-.21-1.22,2.88,2.88,0,0,0-.6-1,2.91,2.91,0,0,0-.93-.64,3.47,3.47,0,0,0-2.43,0A2.72,2.72,0,0,0,25.2,3.78,3.67,3.67,0,0,0,25,5Z"/><path class="cls-1" d="M43.79,6.09a4.64,4.64,0,0,1-.25,1.56,3.38,3.38,0,0,1-2,2A5.2,5.2,0,0,1,38,9.7a3.38,3.38,0,0,1-2-2,4.64,4.64,0,0,1-.25-1.56V.24h2.1V6a2.21,2.21,0,0,0,.14.82,1.85,1.85,0,0,0,.39.65,1.88,1.88,0,0,0,.61.43,2,2,0,0,0,.78.15,1.87,1.87,0,0,0,.76-.15,1.78,1.78,0,0,0,.61-.43,2,2,0,0,0,.4-.65A2.43,2.43,0,0,0,41.7,6V.24h2.09Z"/><path class="cls-1" d="M49.19,2.1H46.47V.24H54V2.1H51.28V9.76H49.19Z"/></svg>