<svg id="レイヤー_1" data-name="レイヤー 1" xmlns="http://www.w3.org/2000/svg" viewBox="0 0 58 10"><defs><style>.cls-1{fill:#edeedc;}</style></defs><path class="cls-1" d="M4.11.24H5.85L10,9.76H7.62l-.82-2H3.1l-.79,2H0ZM4.92,3,3.76,6H6.09Z"/><path class="cls-1" d="M18.8,2.72A1.89,1.89,0,0,0,18,2.14a2.41,2.41,0,0,0-1-.2,2.62,2.62,0,0,0-1.09.22A2.81,2.81,0,0,0,15,2.8a3,3,0,0,0-.57,1A3.43,3.43,0,0,0,14.25,5a3.45,3.45,0,0,0,.21,1.23,3,3,0,0,0,.57,1,2.68,2.68,0,0,0,.85.64,2.52,2.52,0,0,0,1.06.22,2.34,2.34,0,0,0,1.14-.26A2.29,2.29,0,0,0,18.9,7l1.75,1.31A3.73,3.73,0,0,1,19.11,9.6a4.71,4.71,0,0,1-1.91.4,5.92,5.92,0,0,1-2-.35,4.75,4.75,0,0,1-1.63-1,4.6,4.6,0,0,1-1.07-1.58A5.49,5.49,0,0,1,12.07,5a5.49,5.49,0,0,1,.38-2.07,4.6,4.6,0,0,1,1.07-1.58,4.75,4.75,0,0,1,1.63-1,5.92,5.92,0,0,1,2-.35A4.92,4.92,0,0,1,18,.07a4.22,4.22,0,0,1,.86.24,3.78,3.78,0,0,1,.82.43,3.35,3.35,0,0,1,.7.66Z"/><path class="cls-1" d="M29.46,2.72a1.89,1.89,0,0,0-.76-.58,2.41,2.41,0,0,0-1-.2,2.62,2.62,0,0,0-1.09.22,2.81,2.81,0,0,0-.88.64,3.18,3.18,0,0,0-.58,1A3.67,3.67,0,0,0,24.91,5a3.69,3.69,0,0,0,.2,1.23,3.05,3.05,0,0,0,.58,1,2.68,2.68,0,0,0,.85.64,2.5,2.5,0,0,0,1.05.22,2.38,2.38,0,0,0,1.15-.26A2.29,2.29,0,0,0,29.56,7L31.3,8.35A3.64,3.64,0,0,1,29.77,9.6a4.71,4.71,0,0,1-1.91.4,5.88,5.88,0,0,1-2.05-.35,4.75,4.75,0,0,1-1.63-1,4.6,4.6,0,0,1-1.07-1.58A5.49,5.49,0,0,1,22.73,5a5.49,5.49,0,0,1,.38-2.07,4.6,4.6,0,0,1,1.07-1.58,4.75,4.75,0,0,1,1.63-1A5.88,5.88,0,0,1,27.86,0a4.92,4.92,0,0,1,.84.07,4.4,4.4,0,0,1,.86.24,3.78,3.78,0,0,1,.82.43,3.35,3.35,0,0,1,.7.66Z"/><path class="cls-1" d="M33.39.24h6.46V2.18H35.49V4h4.12V5.89H35.49V7.82H40.1V9.76H33.39Z"/><path class="cls-1" d="M47.6,2.57a1.47,1.47,0,0,0-.7-.48,2.5,2.5,0,0,0-.82-.15,1.88,1.88,0,0,0-.47.05,1.5,1.5,0,0,0-.46.17.92.92,0,0,0-.35.3.76.76,0,0,0-.13.46.76.76,0,0,0,.32.66A3.06,3.06,0,0,0,45.8,4l1.06.32a4.44,4.44,0,0,1,1,.45,2.48,2.48,0,0,1,.81.8,2.36,2.36,0,0,1,.33,1.33,3,3,0,0,1-.3,1.38,2.74,2.74,0,0,1-.8,1,3.21,3.21,0,0,1-1.17.58,4.93,4.93,0,0,1-1.4.19,5,5,0,0,1-1.72-.28,4.25,4.25,0,0,1-1.48-.92l1.49-1.64a2.25,2.25,0,0,0,1.83.9A2.37,2.37,0,0,0,46,8a1.76,1.76,0,0,0,.47-.18.9.9,0,0,0,.33-.31A.72.72,0,0,0,47,7.07a.81.81,0,0,0-.33-.68A2.92,2.92,0,0,0,45.79,6c-.33-.12-.69-.24-1.07-.35a5.51,5.51,0,0,1-1.08-.47,2.65,2.65,0,0,1-.82-.78,2.23,2.23,0,0,1-.33-1.28A2.8,2.8,0,0,1,43.6.78,3.44,3.44,0,0,1,44.76.19,4.75,4.75,0,0,1,46.12,0a5.45,5.45,0,0,1,1.56.23A3.62,3.62,0,0,1,49,1Z"/><path class="cls-1" d="M56.55,2.57a1.44,1.44,0,0,0-.69-.48A2.61,2.61,0,0,0,55,1.94a1.93,1.93,0,0,0-.47.05,1.6,1.6,0,0,0-.46.17.92.92,0,0,0-.35.3.76.76,0,0,0-.13.46.79.79,0,0,0,.32.66,3.39,3.39,0,0,0,.81.39l1.06.32a4.11,4.11,0,0,1,1,.45,2.61,2.61,0,0,1,.82.8A2.45,2.45,0,0,1,58,6.87a3,3,0,0,1-.3,1.38,2.64,2.64,0,0,1-.8,1,3.25,3.25,0,0,1-1.16.58,5.38,5.38,0,0,1-3.13-.09,4.25,4.25,0,0,1-1.48-.92l1.49-1.64a2.29,2.29,0,0,0,1.83.9A2.37,2.37,0,0,0,55,8a1.76,1.76,0,0,0,.47-.18,1,1,0,0,0,.34-.31.78.78,0,0,0,.12-.44.81.81,0,0,0-.33-.68A3,3,0,0,0,54.75,6c-.33-.12-.69-.24-1.08-.35a5.42,5.42,0,0,1-1.07-.47,2.58,2.58,0,0,1-.83-.78,2.23,2.23,0,0,1-.33-1.28A2.8,2.8,0,0,1,52.55.78,3.53,3.53,0,0,1,53.71.19,4.75,4.75,0,0,1,55.07,0a5.4,5.4,0,0,1,1.56.23A3.74,3.74,0,0,1,58,1Z"/></svg>