<svg id="レイヤー_1" data-name="レイヤー 1" xmlns="http://www.w3.org/2000/svg" viewBox="0 0 75.95 10.25"><defs><style>.cls-1{fill:#edeedc;}</style></defs><path class="cls-1" d="M6.9,2.78a2.07,2.07,0,0,0-.78-.59A2.55,2.55,0,0,0,5.05,2a2.65,2.65,0,0,0-1.12.24A2.59,2.59,0,0,0,3,2.87a3,3,0,0,0-.6,1,3.6,3.6,0,0,0-.21,1.25,3.62,3.62,0,0,0,.21,1.26,3.25,3.25,0,0,0,.59,1A2.79,2.79,0,0,0,3.9,8,2.5,2.5,0,0,0,5,8.26,2.48,2.48,0,0,0,6.16,8,2.38,2.38,0,0,0,7,7.22L8.79,8.55A3.74,3.74,0,0,1,7.22,9.83a4.83,4.83,0,0,1-2,.42,6,6,0,0,1-2.11-.36,4.8,4.8,0,0,1-1.66-1A4.52,4.52,0,0,1,.39,7.24,5.52,5.52,0,0,1,0,5.12,5.56,5.56,0,0,1,.39,3a4.7,4.7,0,0,1,1.1-1.62,4.93,4.93,0,0,1,1.66-1A6,6,0,0,1,5.26,0a5.19,5.19,0,0,1,.86.08A4.59,4.59,0,0,1,7,.32a3.75,3.75,0,0,1,.84.44,3.45,3.45,0,0,1,.71.67Z"/><path class="cls-1" d="M14.8.25h1.77L20.81,10H18.39l-.84-2.07H13.76L13,10H10.58Zm.82,2.83-1.18,3h2.38Z"/><path class="cls-1" d="M23.28.25h3.77a7,7,0,0,1,1.41.14,3.43,3.43,0,0,1,1.17.48,2.35,2.35,0,0,1,.8.91,3.06,3.06,0,0,1,.3,1.43A2.83,2.83,0,0,1,30.19,5a2.4,2.4,0,0,1-1.57.92L31.1,10H28.53l-2-3.9H25.43V10H23.28Zm2.15,4h1.26c.2,0,.4,0,.62,0a1.76,1.76,0,0,0,.58-.12,1,1,0,0,0,.44-.33,1,1,0,0,0,.17-.62,1.05,1.05,0,0,0-.15-.59A1,1,0,0,0,28,2.27a1.43,1.43,0,0,0-.54-.16,3.9,3.9,0,0,0-.59,0h-1.4Z"/><path class="cls-1" d="M37.34.25h1.78L43.36,10H40.94L40.1,7.93H36.31L35.5,10H33.13Zm.83,2.83L37,6.11h2.39Z"/><path class="cls-1" d="M43.87.25h2.45l2.41,6.39h0L51.21.25h2.3l-4,9.75H47.77Z"/><path class="cls-1" d="M58.23.25H60L64.25,10H61.82L61,7.93H57.2L56.39,10H54Zm.83,2.83-1.19,3h2.39Z"/><path class="cls-1" d="M66.71.25h2.92L73.78,7h0V.25H76V10H73.14L68.89,3.06h0V10H66.71Z"/></svg>