<svg id="レイヤー_1" data-name="レイヤー 1" xmlns="http://www.w3.org/2000/svg" viewBox="0 0 171 30"><defs><style>.cls-1{fill:#dfc33a;}.cls-2{fill:#3f0708;}</style></defs><rect class="cls-1" width="171" height="30" rx="15"/><path class="cls-2" d="M52.41,20h0V10a.47.47,0,0,0,0-.17L46.86,15.2Z"/><path class="cls-2" d="M43.77,17.43l8.16-8H35.79a.76.76,0,0,0-.16,0Z"/><path class="cls-2" d="M46.45,15.6,44,18a.26.26,0,0,1-.2.08.28.28,0,0,1-.21-.08L41.18,15.7l-5.55,4.82a.76.76,0,0,0,.16,0H51.87a.54.54,0,0,0,.22-.05Z"/><path class="cls-2" d="M35.26,9.92s0,.05,0,.07V20s0,0,0,.07l5.51-4.78Z"/><path class="cls-2" d="M68.29,12.66a2,2,0,0,0-.78-.59,2.55,2.55,0,0,0-1.07-.21,2.77,2.77,0,0,0-1.12.23,2.91,2.91,0,0,0-.9.66,3,3,0,0,0-.59,1,3.86,3.86,0,0,0,0,2.51,3.07,3.07,0,0,0,.59,1,2.79,2.79,0,0,0,.87.66,2.65,2.65,0,0,0,1.08.23,2.36,2.36,0,0,0,1.17-.28,2.29,2.29,0,0,0,.84-.77l1.79,1.34a3.69,3.69,0,0,1-1.57,1.28,4.74,4.74,0,0,1-1.95.41,6,6,0,0,1-2.11-.36,4.58,4.58,0,0,1-2.76-2.64A5.52,5.52,0,0,1,61.39,15a5.52,5.52,0,0,1,.39-2.12,4.58,4.58,0,0,1,2.76-2.64,6,6,0,0,1,2.11-.36,5.24,5.24,0,0,1,.86.07,4.59,4.59,0,0,1,.88.24,3.89,3.89,0,0,1,.83.44,3.31,3.31,0,0,1,.72.68Z"/><path class="cls-2" d="M72,15a5.52,5.52,0,0,1,.39-2.12,4.7,4.7,0,0,1,1.1-1.62,4.77,4.77,0,0,1,1.66-1,6.36,6.36,0,0,1,4.22,0,4.65,4.65,0,0,1,2.76,2.64A5.52,5.52,0,0,1,82.49,15a5.52,5.52,0,0,1-.39,2.12,4.65,4.65,0,0,1-2.76,2.64,6.36,6.36,0,0,1-4.22,0,4.77,4.77,0,0,1-1.66-1,4.7,4.7,0,0,1-1.1-1.62A5.52,5.52,0,0,1,72,15Zm2.23,0a3.62,3.62,0,0,0,.21,1.26,3,3,0,0,0,.62,1,2.79,2.79,0,0,0,1,.66,3.35,3.35,0,0,0,1.25.23,3.31,3.31,0,0,0,1.25-.23,2.79,2.79,0,0,0,1-.66,3,3,0,0,0,.62-1,3.86,3.86,0,0,0,0-2.51,2.91,2.91,0,0,0-.62-1,2.79,2.79,0,0,0-1-.66,3.31,3.31,0,0,0-1.25-.23,3.35,3.35,0,0,0-1.25.23,2.79,2.79,0,0,0-1,.66,2.91,2.91,0,0,0-.62,1A3.6,3.6,0,0,0,74.2,15Z"/><path class="cls-2" d="M85.47,10.12h2.92l4.14,6.78h0V10.12h2.15v9.75H91.9l-4.26-6.94h0v6.94H85.47Z"/><path class="cls-2" d="M100,12H97.22V10.12h7.71V12h-2.78v7.84H100Z"/><path class="cls-2" d="M109.76,10.12h1.78l4.24,9.75h-2.42l-.84-2.06h-3.79l-.81,2.06h-2.37Zm.83,2.84-1.19,3h2.39Z"/><path class="cls-2" d="M124.15,12.66a2,2,0,0,0-.78-.59,2.54,2.54,0,0,0-1.06-.21,2.82,2.82,0,0,0-1.13.23,2.76,2.76,0,0,0-.89.66,3,3,0,0,0-.59,1,3.69,3.69,0,0,0,0,2.51,3,3,0,0,0,.58,1,2.72,2.72,0,0,0,.88.66,2.58,2.58,0,0,0,1.08.23,2.36,2.36,0,0,0,1.17-.28,2.29,2.29,0,0,0,.84-.77L126,18.43a3.81,3.81,0,0,1-1.57,1.28,4.82,4.82,0,0,1-2,.41,5.94,5.94,0,0,1-2.1-.36,4.72,4.72,0,0,1-1.67-1,4.84,4.84,0,0,1-1.1-1.62,5.52,5.52,0,0,1-.39-2.12,5.52,5.52,0,0,1,.39-2.12,4.84,4.84,0,0,1,1.1-1.62,4.72,4.72,0,0,1,1.67-1,5.94,5.94,0,0,1,2.1-.36,5.15,5.15,0,0,1,.86.07,4.59,4.59,0,0,1,.88.24,4.22,4.22,0,0,1,.84.44,3.5,3.5,0,0,1,.71.68Z"/><path class="cls-2" d="M130.82,12H128V10.12h7.71V12H133v7.84h-2.14Z"/></svg>