<svg id="レイヤー_1" data-name="レイヤー 1" xmlns="http://www.w3.org/2000/svg" viewBox="0 0 44 10"><defs><style>.cls-1{fill:#edeedc;}</style></defs><path class="cls-1" d="M0,.24H2.85L6.9,6.85h0V.24H9V9.76H6.28L2.12,3h0V9.76H0Z"/><path class="cls-1" d="M11.66.24h6.46V2.18H13.75V4h4.13V5.89H13.75V7.82h4.61V9.76h-6.7Z"/><path class="cls-1" d="M21,.24h2.28l1.52,6.1h0l2-6.1h1.95l2,6.27h0L32.37.24h2.12L31.71,9.76H29.84L27.75,3.17h0l-2.1,6.59h-1.8Z"/><path class="cls-1" d="M42.55,2.57a1.44,1.44,0,0,0-.69-.48A2.61,2.61,0,0,0,41,1.94a1.93,1.93,0,0,0-.47.05,1.6,1.6,0,0,0-.46.17.92.92,0,0,0-.35.3.76.76,0,0,0-.13.46.79.79,0,0,0,.32.66,3.39,3.39,0,0,0,.81.39l1.06.32a4.11,4.11,0,0,1,1,.45,2.61,2.61,0,0,1,.82.8A2.45,2.45,0,0,1,44,6.87a3,3,0,0,1-.3,1.38,2.64,2.64,0,0,1-.8,1,3.25,3.25,0,0,1-1.16.58,5.38,5.38,0,0,1-3.13-.09,4.25,4.25,0,0,1-1.48-.92l1.49-1.64a2.29,2.29,0,0,0,1.83.9A2.37,2.37,0,0,0,41,8a1.76,1.76,0,0,0,.47-.18,1,1,0,0,0,.34-.31.78.78,0,0,0,.12-.44.81.81,0,0,0-.33-.68A3,3,0,0,0,40.75,6c-.33-.12-.69-.24-1.08-.35a5.42,5.42,0,0,1-1.07-.47,2.58,2.58,0,0,1-.83-.78,2.23,2.23,0,0,1-.33-1.28A2.8,2.8,0,0,1,38.55.78,3.53,3.53,0,0,1,39.71.19,4.75,4.75,0,0,1,41.07,0a5.4,5.4,0,0,1,1.56.23A3.74,3.74,0,0,1,44,1Z"/></svg>