<svg id="レイヤー_1" data-name="レイヤー 1" xmlns="http://www.w3.org/2000/svg" viewBox="0 0 46 10"><defs><style>.cls-1{fill:#edeedc;}</style></defs><path class="cls-1" d="M5.42,2.57a1.42,1.42,0,0,0-.7-.48,2.5,2.5,0,0,0-.82-.15A1.93,1.93,0,0,0,3.43,2,1.81,1.81,0,0,0,3,2.16a.92.92,0,0,0-.35.3.78.78,0,0,0-.13.46.76.76,0,0,0,.32.66A3.22,3.22,0,0,0,3.62,4l1.06.32a4.68,4.68,0,0,1,1.05.45,2.61,2.61,0,0,1,.82.8,2.45,2.45,0,0,1,.32,1.33,3,3,0,0,1-.3,1.38,2.64,2.64,0,0,1-.8,1,3.21,3.21,0,0,1-1.17.58A4.93,4.93,0,0,1,3.2,10a5,5,0,0,1-1.72-.28A4.25,4.25,0,0,1,0,8.8L1.49,7.16a2.29,2.29,0,0,0,1.83.9A2.37,2.37,0,0,0,3.84,8a1.76,1.76,0,0,0,.47-.18.9.9,0,0,0,.33-.31.72.72,0,0,0,.13-.44.81.81,0,0,0-.33-.68A3,3,0,0,0,3.62,6c-.34-.12-.69-.24-1.08-.35a4.89,4.89,0,0,1-1.07-.47,2.58,2.58,0,0,1-.83-.78A2.23,2.23,0,0,1,.31,3.09,2.8,2.8,0,0,1,1.42.78,3.44,3.44,0,0,1,2.58.19,4.75,4.75,0,0,1,3.94,0,5.4,5.4,0,0,1,5.5.23,3.62,3.62,0,0,1,6.85,1Z"/><path class="cls-1" d="M11.8,2.1H9.08V.24h7.53V2.1H13.89V9.76H11.8Z"/><path class="cls-1" d="M22.93.24h1.74l4.14,9.52H26.44l-.82-2h-3.7l-.79,2H18.82ZM23.74,3,22.58,6h2.33Z"/><path class="cls-1" d="M31,.24H37.4V2.18H33.12V4.11h4V6.05h-4V9.76H31Z"/><path class="cls-1" d="M39.62.24H46V2.18H41.71V4.11h4V6.05h-4V9.76H39.62Z"/></svg>