<svg id="レイヤー_1" data-name="レイヤー 1" xmlns="http://www.w3.org/2000/svg" viewBox="0 0 60 10"><defs><style>.cls-1{fill:#edeedc;}</style></defs><path class="cls-1" d="M5.42,2.57a1.42,1.42,0,0,0-.7-.48,2.5,2.5,0,0,0-.82-.15A1.93,1.93,0,0,0,3.43,2,1.5,1.5,0,0,0,3,2.16a.92.92,0,0,0-.35.3.76.76,0,0,0-.13.46.76.76,0,0,0,.32.66A3.22,3.22,0,0,0,3.62,4l1.06.32a4.27,4.27,0,0,1,1.05.45,2.61,2.61,0,0,1,.82.8,2.45,2.45,0,0,1,.32,1.33,3,3,0,0,1-.3,1.38,2.64,2.64,0,0,1-.8,1,3.21,3.21,0,0,1-1.17.58A4.93,4.93,0,0,1,3.2,10a5,5,0,0,1-1.72-.28A4.25,4.25,0,0,1,0,8.8L1.49,7.16a2.29,2.29,0,0,0,1.83.9A2.37,2.37,0,0,0,3.84,8a1.76,1.76,0,0,0,.47-.18.9.9,0,0,0,.33-.31.72.72,0,0,0,.13-.44.81.81,0,0,0-.33-.68A3,3,0,0,0,3.62,6c-.34-.12-.69-.24-1.08-.35a5.78,5.78,0,0,1-1.08-.47,2.65,2.65,0,0,1-.82-.78A2.23,2.23,0,0,1,.31,3.09,2.8,2.8,0,0,1,1.42.78,3.44,3.44,0,0,1,2.58.19,4.75,4.75,0,0,1,3.94,0,5.4,5.4,0,0,1,5.5.23,3.62,3.62,0,0,1,6.85,1Z"/><path class="cls-1" d="M12.85,5.7,9.27.24h2.61l2,3.56L16,.24h2.49L15,5.7V9.76h-2.1Z"/><path class="cls-1" d="M26.34,2.57a1.44,1.44,0,0,0-.69-.48,2.56,2.56,0,0,0-.83-.15,2,2,0,0,0-.47.05,1.44,1.44,0,0,0-.45.17.85.85,0,0,0-.35.3.76.76,0,0,0-.14.46.77.77,0,0,0,.33.66,3.06,3.06,0,0,0,.81.39l1.05.32a4.34,4.34,0,0,1,1.06.45,2.48,2.48,0,0,1,.81.8,2.36,2.36,0,0,1,.33,1.33,3,3,0,0,1-.3,1.38,2.74,2.74,0,0,1-.8,1,3.38,3.38,0,0,1-1.17.58,4.93,4.93,0,0,1-1.4.19,5,5,0,0,1-1.72-.28,4.16,4.16,0,0,1-1.48-.92l1.49-1.64a2.12,2.12,0,0,0,.81.67,2.3,2.3,0,0,0,1,.23A2.22,2.22,0,0,0,24.76,8a1.54,1.54,0,0,0,.47-.18.93.93,0,0,0,.34-.31.72.72,0,0,0,.13-.44.81.81,0,0,0-.33-.68A3.07,3.07,0,0,0,24.54,6c-.33-.12-.69-.24-1.07-.35a5.26,5.26,0,0,1-1.08-.47,2.55,2.55,0,0,1-.82-.78,2.23,2.23,0,0,1-.33-1.28A2.8,2.8,0,0,1,22.35.78,3.44,3.44,0,0,1,23.51.19,4.75,4.75,0,0,1,24.87,0a5.39,5.39,0,0,1,1.55.23A3.59,3.59,0,0,1,27.78,1Z"/><path class="cls-1" d="M32.92,2.1H30.2V.24h7.53V2.1H35V9.76H32.92Z"/><path class="cls-1" d="M40.13.24H46.6V2.18H42.23V4h4.13V5.89H42.23V7.82h4.61V9.76H40.13Z"/><path class="cls-1" d="M49.25.24h3.17l2.19,6.21h0L56.84.24H60V9.76H57.9V2.46h0l-2.5,7.3h-1.6l-2.41-7.3h0v7.3H49.25Z"/></svg>