<svg id="レイヤー_1" data-name="レイヤー 1" xmlns="http://www.w3.org/2000/svg" viewBox="0 0 268 45"><defs><style>.cls-1{fill:none;}.cls-2{fill:#edefdd;}</style></defs><rect class="cls-1" width="268" height="45"/><polygon class="cls-2" points="52.22 16.74 42.9 16.74 42.34 11.55 51.64 11.55 51.64 5.51 41.68 5.51 41.08 0 34.73 0 35.33 5.51 25.89 5.51 25.89 11.55 35.98 11.55 36.55 16.74 26.33 16.74 26.33 22.87 37.22 22.87 37.92 29.31 44.27 29.31 43.57 22.87 52.22 22.87 52.22 16.74"/><polygon class="cls-2" points="86 10.87 85.67 6.57 79.36 6.57 79.71 11.11 75.15 11.28 75.15 17.45 80.18 17.34 81.1 29.53 87.45 29.53 86.49 17.21 89.49 17.14 89.27 21.63 94.73 21.63 94.95 10.52 86 10.87"/><rect class="cls-2" x="118.31" y="1.42" width="23.49" height="6.13"/><path class="cls-2" d="M117.88,9.86v6.22h17c-1.72,7-15.8,4.84-15.77,5.19.31,3.38.55,6.1.55,6.1,10.3.47,22.73-1.09,23.34-17.51Z"/><path class="cls-2" d="M172.14,19c-1,3.08-6.16,2.83-6.16,2.83v5.8c.36,0,10.86-.27,12.17-8V1.22h-6S172.09,15.43,172.14,19Z"/><path class="cls-2" d="M166,27.6Z"/><path class="cls-2" d="M188.5,19c0-1.32,0-4.1,0-7.08h3.13V8.38h-3.13c0-.6,0-1.19,0-1.76h3.14V3.11H188.5V1.22h-6v18.4c1.31,7.71,11.82,8,12.17,8V21.8S189.52,22.05,188.5,19Z"/><path class="cls-2" d="M194.66,27.6Z"/><rect class="cls-2" x="217.75" y="2.09" width="14.27" height="4.95"/><path class="cls-2" d="M235.75,7s-.05,8,0,12.39c-1.45,3.12-.85,1.77-18,1.75-.34-.46,0,6.42,0,6.42h14.7c1.89-.47,9.05,1.1,9.66-8.32V7Z"/><path class="cls-2" d="M93.27,37.85H86.11v6h7.16V41.78l1.72.29v1a1.93,1.93,0,0,1-.5,1.55,3.18,3.18,0,0,1-1.9.4H86.81a3.23,3.23,0,0,1-1.91-.41,1.88,1.88,0,0,1-.51-1.54V38.7a1.91,1.91,0,0,1,.51-1.55,3.23,3.23,0,0,1,1.91-.41h5.78a3.26,3.26,0,0,1,1.9.4,1.9,1.9,0,0,1,.5,1.54v.78l-1.72.26Z"/><path class="cls-2" d="M97.51,45l5.64-8.26H105L110.73,45h-1.9l-1.32-2h-7l-1.32,2Zm3.74-3.09h5.56L104,37.69Z"/><path class="cls-2" d="M114.07,45V36.74h8.3a2.86,2.86,0,0,1,1.66.38,1.4,1.4,0,0,1,.52,1.22v1.84a1.4,1.4,0,0,1-.52,1.23,2.87,2.87,0,0,1-1.66.37h-1.51L125.58,45H123l-4.2-3.22h-3V45Zm7.64-7.18h-5.92v2.89h5.92a1.68,1.68,0,0,0,.87-.17.78.78,0,0,0,.25-.68v-1.2a.75.75,0,0,0-.25-.66A1.57,1.57,0,0,0,121.71,37.82Z"/><path class="cls-2" d="M127.29,45l5.64-8.26h1.84L140.51,45h-1.9l-1.32-2h-7L129,45ZM131,41.91h5.56l-2.78-4.22Z"/><path class="cls-2" d="M147.47,45l-5.64-8.26h1.86l4.56,6.88,4.36-6.88h1.7L148.91,45Z"/><path class="cls-2" d="M155.63,45l5.64-8.26h1.84L168.85,45H167l-1.32-2h-7l-1.32,2Zm3.74-3.09h5.56l-2.78-4.22Z"/><path class="cls-2" d="M172.19,45V36.74h1.08L181,42.26a9.56,9.56,0,0,1,1.18,1,10,10,0,0,1-.16-2V36.74h1.6V45h-1l-7.94-5.74-.5-.37a3.16,3.16,0,0,1-.54-.56,11.46,11.46,0,0,1,.12,1.81V45Z"/></svg>