<?xml version="1.0" encoding="utf-8"?>
<!-- Generator: Adobe Illustrator 21.1.0, SVG Export Plug-In . SVG Version: 6.00 Build 0)  -->
<svg version="1.1" id="レイヤー_1" xmlns="http://www.w3.org/2000/svg" xmlns:xlink="http://www.w3.org/1999/xlink" x="0px"
	 y="0px" viewBox="0 0 12.5 12.5" style="enable-background:new 0 0 12.5 12.5;" xml:space="preserve">
<style type="text/css">
	.st0{fill:#400707;}
</style>
<path class="st0" d="M6.5,9h-4C1.1,9,0,7.9,0,6.5v-4C0,1.1,1.1,0,2.5,0h4C7.9,0,9,1.1,9,2.5v4C9,7.9,7.9,9,6.5,9z M2.5,2
	C2.2,2,2,2.2,2,2.5v4C2,6.8,2.2,7,2.5,7h4C6.8,7,7,6.8,7,6.5v-4C7,2.2,6.8,2,6.5,2H2.5z"/>
<path class="st0" d="M10,12.5H6c-0.6,0-1-0.4-1-1s0.4-1,1-1h4c0.3,0,0.5-0.2,0.5-0.5V6c0-0.6,0.4-1,1-1s1,0.4,1,1v4
	C12.5,11.4,11.4,12.5,10,12.5z"/>
</svg>
